# xmcd
#
# Track frame offsets:
#	150
#	19521
#	46426
#	59130
#	73444
#	89644
#	110448
#	130554
#	140585
#	157930
#	167973
#
# Disc length: 2370 seconds
#
# Revision: 1
# Processed by: cddbd v1.5.2PL0 Copyright (c) Steve Scherf et al.
# Submitted via: audiograbber 1.83.01
#
DISCID=a009400b
DTITLE=Danny Croft - No Stops
DYEAR=1995
DGENRE=Country
TTITLE0=Nothing Outside This House
TTITLE1=This Road
TTITLE2=If That's Your Way of Lovin'
TTITLE3=Our River's Running Dry
TTITLE4=No Stops
TTITLE5=Used To Be
TTITLE6=He Left A Memory
TTITLE7=Belle Lou
TTITLE8=Garden of Stones
TTITLE9=Mind Your Own Business
TTITLE10=Mind Your Own Business (#2)
EXTD=Local Mariposa, California Artist
EXTT0=
EXTT1=
EXTT2=
EXTT3=
EXTT4=
EXTT5=
EXTT6=
EXTT7=
EXTT8=
EXTT9=
EXTT10=Duplicate
PLAYORDER=
